<svg xmlns="http://www.w3.org/2000/svg" xmlns:xlink="http://www.w3.org/1999/xlink" width="500" zoomAndPan="magnify" viewBox="0 0 375 374.999991" height="500" preserveAspectRatio="xMidYMid meet" version="1.0"><defs><g/><clipPath id="adf8d2b992"><path d="M 81 67 L 300 67 L 300 285 L 81 285 Z M 81 67 " clip-rule="nonzero"/></clipPath><clipPath id="229e2c49aa"><path d="M 47.535156 119.371094 L 237.648438 37.476562 L 323.695312 237.234375 L 133.582031 319.125 Z M 47.535156 119.371094 " clip-rule="nonzero"/></clipPath><clipPath id="f40fc47736"><path d="M 47.535156 119.371094 L 237.648438 37.476562 L 323.695312 237.234375 L 133.582031 319.125 Z M 47.535156 119.371094 " clip-rule="nonzero"/></clipPath><clipPath id="c3ab940647"><path d="M 47.535156 119.371094 L 237.648438 37.476562 L 323.695312 237.234375 L 133.582031 319.125 Z M 47.535156 119.371094 " clip-rule="nonzero"/></clipPath><clipPath id="906b06aa37"><path d="M 58 194 L 142 194 L 142 234 L 58 234 Z M 58 194 " clip-rule="nonzero"/></clipPath><clipPath id="f3069dcd0f"><path d="M 57.4375 229.023438 L 140.785156 193.121094 L 151.167969 217.230469 L 67.824219 253.132812 Z M 57.4375 229.023438 " clip-rule="nonzero"/></clipPath><clipPath id="c4cc5424d1"><path d="M 57.4375 229.023438 L 140.785156 193.121094 L 151.167969 217.230469 L 67.824219 253.132812 Z M 57.4375 229.023438 " clip-rule="nonzero"/></clipPath><clipPath id="66e30af630"><path d="M 57.4375 229.023438 L 140.785156 193.121094 L 151.167969 217.230469 L 67.824219 253.132812 Z M 57.4375 229.023438 " clip-rule="nonzero"/></clipPath></defs><g clip-path="url(#adf8d2b992)"><g clip-path="url(#229e2c49aa)"><g clip-path="url(#f40fc47736)"><g clip-path="url(#c3ab940647)"><path fill="#000000" d="M 233.503906 276.027344 C 228.152344 278.351562 222.644531 280.230469 216.988281 281.664062 C 211.332031 283.097656 205.597656 284.066406 199.785156 284.570312 C 193.972656 285.078125 188.15625 285.113281 182.339844 284.675781 C 176.523438 284.238281 170.777344 283.339844 165.109375 281.972656 C 159.5625 280.636719 154.15625 278.882812 148.886719 276.707031 C 143.613281 274.527344 138.546875 271.957031 133.679688 268.992188 C 128.808594 266.023438 124.203125 262.699219 119.855469 259.015625 C 115.507812 255.332031 111.472656 251.332031 107.746094 247.019531 C 107.542969 246.78125 107.390625 246.515625 107.292969 246.21875 C 107.195312 245.921875 107.160156 245.613281 107.183594 245.300781 C 107.207031 244.988281 107.289062 244.695312 107.429688 244.414062 C 107.570312 244.132812 107.761719 243.890625 108 243.6875 C 108.234375 243.480469 108.503906 243.332031 108.800781 243.230469 C 109.101562 243.132812 109.40625 243.097656 109.71875 243.117188 C 110.03125 243.140625 110.328125 243.222656 110.609375 243.363281 C 110.886719 243.507812 111.132812 243.695312 111.335938 243.933594 C 141.140625 278.699219 189.503906 289.839844 231.636719 271.691406 C 268.175781 255.949219 292.269531 221.515625 294.511719 181.820312 C 294.527344 181.507812 294.605469 181.207031 294.742188 180.925781 C 294.878906 180.640625 295.0625 180.394531 295.296875 180.183594 C 295.53125 179.972656 295.796875 179.816406 296.09375 179.710938 C 296.390625 179.605469 296.695312 179.5625 297.011719 179.578125 C 297.324219 179.59375 297.625 179.671875 297.910156 179.808594 C 298.191406 179.941406 298.4375 180.125 298.648438 180.359375 C 298.859375 180.59375 299.015625 180.859375 299.121094 181.15625 C 299.226562 181.453125 299.269531 181.757812 299.253906 182.070312 C 299.113281 184.582031 298.886719 187.085938 298.574219 189.582031 C 298.257812 192.074219 297.859375 194.558594 297.371094 197.027344 C 296.886719 199.492188 296.316406 201.941406 295.660156 204.371094 C 295.003906 206.796875 294.261719 209.203125 293.441406 211.578125 C 292.617188 213.957031 291.710938 216.304688 290.726562 218.617188 C 289.742188 220.933594 288.675781 223.210938 287.53125 225.453125 C 286.386719 227.695312 285.167969 229.894531 283.871094 232.050781 C 282.574219 234.207031 281.203125 236.316406 279.757812 238.378906 C 278.316406 240.441406 276.804688 242.453125 275.21875 244.410156 C 273.636719 246.367188 271.988281 248.269531 270.273438 250.113281 C 268.558594 251.957031 266.785156 253.738281 264.945312 255.457031 C 263.105469 257.179688 261.210938 258.835938 259.257812 260.425781 C 257.304688 262.015625 255.300781 263.535156 253.242188 264.984375 C 251.183594 266.433594 249.078125 267.8125 246.921875 269.117188 C 244.769531 270.421875 242.574219 271.652344 240.332031 272.804688 C 238.09375 273.957031 235.816406 275.03125 233.503906 276.027344 Z M 91.128906 214.3125 L 90.992188 214.375 C 90.695312 214.480469 90.390625 214.523438 90.078125 214.511719 C 89.765625 214.496094 89.46875 214.421875 89.183594 214.289062 C 88.902344 214.15625 88.652344 213.972656 88.445312 213.742188 C 88.234375 213.507812 88.074219 213.246094 87.96875 212.953125 C 68.59375 159.054688 94.738281 99.042969 147.480469 76.324219 C 149.792969 75.328125 152.136719 74.410156 154.511719 73.578125 C 156.886719 72.742188 159.289062 71.992188 161.714844 71.324219 C 164.144531 70.65625 166.59375 70.070312 169.058594 69.574219 C 171.527344 69.074219 174.011719 68.664062 176.507812 68.335938 C 179.003906 68.007812 181.507812 67.769531 184.019531 67.617188 C 186.53125 67.460938 189.046875 67.394531 191.5625 67.417969 C 194.082031 67.4375 196.59375 67.546875 199.105469 67.742188 C 201.613281 67.9375 204.113281 68.21875 206.601562 68.585938 C 209.09375 68.953125 211.566406 69.410156 214.023438 69.949219 C 216.480469 70.488281 218.917969 71.113281 221.332031 71.820312 C 223.746094 72.527344 226.132812 73.320312 228.492188 74.191406 C 230.851562 75.066406 233.175781 76.019531 235.46875 77.054688 C 237.761719 78.089844 240.015625 79.203125 242.230469 80.394531 C 244.445312 81.585938 246.617188 82.851562 248.746094 84.195312 C 250.871094 85.535156 252.949219 86.949219 254.980469 88.4375 C 257.007812 89.921875 258.980469 91.476562 260.902344 93.097656 C 261.140625 93.300781 261.335938 93.542969 261.476562 93.824219 C 261.621094 94.101562 261.707031 94.398438 261.730469 94.714844 C 261.757812 95.027344 261.722656 95.332031 261.625 95.632812 C 261.527344 95.933594 261.378906 96.203125 261.171875 96.441406 C 260.96875 96.679688 260.726562 96.875 260.445312 97.015625 C 260.167969 97.160156 259.871094 97.246094 259.554688 97.269531 C 259.242188 97.296875 258.933594 97.261719 258.636719 97.164062 C 258.335938 97.070312 258.066406 96.917969 257.828125 96.714844 C 227.460938 71.066406 185.886719 64.917969 149.347656 80.660156 C 98.894531 102.390625 73.890625 159.796875 92.414062 211.34375 C 92.519531 211.625 92.5625 211.917969 92.554688 212.21875 C 92.546875 212.519531 92.480469 212.808594 92.363281 213.082031 C 92.242188 213.359375 92.078125 213.601562 91.863281 213.816406 C 91.652344 214.027344 91.40625 214.195312 91.128906 214.3125 Z M 91.128906 214.3125 " fill-opacity="1" fill-rule="nonzero"/></g></g></g></g><g fill="#000000" fill-opacity="1"><g transform="translate(140.318631, 215.342473)"><g><path d="M 53.515625 -9.671875 C 54.335938 -10.117188 55.210938 -11.210938 56.140625 -12.953125 C 57.078125 -14.691406 58.066406 -16.882812 59.109375 -19.53125 C 60.148438 -22.1875 61.222656 -25.09375 62.328125 -28.25 C 63.441406 -31.414062 64.578125 -34.664062 65.734375 -38 C 66.890625 -41.34375 68.0625 -44.550781 69.25 -47.625 C 69.3125 -47.8125 69.457031 -47.976562 69.6875 -48.125 C 69.914062 -48.28125 70.039062 -48.207031 70.0625 -47.90625 C 68.257812 -43 66.601562 -38.3125 65.09375 -33.84375 C 63.582031 -29.382812 62.164062 -25.359375 60.84375 -21.765625 C 59.53125 -18.171875 58.257812 -15.207031 57.03125 -12.875 C 55.8125 -10.550781 54.546875 -9.070312 53.234375 -8.4375 C 51.828125 -7.757812 50.691406 -7.628906 49.828125 -8.046875 C 48.972656 -8.472656 48.3125 -9.316406 47.84375 -10.578125 C 47.375 -11.835938 47.054688 -13.375 46.890625 -15.1875 C 46.722656 -17 46.625 -18.953125 46.59375 -21.046875 C 46.5625 -23.140625 46.550781 -25.242188 46.5625 -27.359375 C 46.570312 -29.472656 46.523438 -31.472656 46.421875 -33.359375 C 46.316406 -35.253906 46.085938 -36.882812 45.734375 -38.25 C 45.378906 -39.625 44.851562 -40.601562 44.15625 -41.1875 C 43.457031 -41.78125 42.519531 -41.828125 41.34375 -41.328125 C 40.769531 -41.140625 40.160156 -40.820312 39.515625 -40.375 C 38.878906 -39.925781 38.332031 -39.488281 37.875 -39.0625 C 37.550781 -35.976562 37.203125 -32.625 36.828125 -29 C 36.460938 -25.375 35.960938 -21.660156 35.328125 -17.859375 C 34.691406 -14.054688 33.828125 -10.363281 32.734375 -6.78125 C 31.648438 -3.207031 30.226562 0.0664062 28.46875 3.046875 C 26.707031 6.023438 24.539062 8.507812 21.96875 10.5 C 19.507812 12.125 17.3125 13.03125 15.375 13.21875 C 13.4375 13.40625 11.78125 13.039062 10.40625 12.125 C 9.039062 11.21875 8.015625 9.910156 7.328125 8.203125 C 6.640625 6.503906 6.316406 4.535156 6.359375 2.296875 C 6.398438 0.0664062 6.867188 -2.285156 7.765625 -4.765625 C 8.660156 -7.253906 9.992188 -9.695312 11.765625 -12.09375 C 13.546875 -14.488281 15.828125 -16.71875 18.609375 -18.78125 C 19.066406 -19 19.363281 -19.046875 19.5 -18.921875 C 19.632812 -18.796875 19.664062 -18.601562 19.59375 -18.34375 C 19.53125 -18.09375 19.382812 -17.882812 19.15625 -17.71875 C 18.9375 -17.550781 18.695312 -17.546875 18.4375 -17.703125 C 15.59375 -15.335938 13.320312 -12.863281 11.625 -10.28125 C 9.9375 -7.695312 8.75 -5.160156 8.0625 -2.671875 C 7.375 -0.191406 7.128906 2.070312 7.328125 4.125 C 7.535156 6.175781 8.113281 7.894531 9.0625 9.28125 C 10.007812 10.675781 11.28125 11.570312 12.875 11.96875 C 14.46875 12.363281 16.304688 12.113281 18.390625 11.21875 C 21.078125 10.070312 23.328125 8.113281 25.140625 5.34375 C 26.960938 2.570312 28.457031 -0.820312 29.625 -4.84375 C 30.800781 -8.863281 31.742188 -13.332031 32.453125 -18.25 C 33.171875 -23.175781 33.785156 -28.375 34.296875 -33.84375 C 34.671875 -37.8125 34.910156 -41.660156 35.015625 -45.390625 C 35.128906 -49.117188 35.109375 -52.5625 34.953125 -55.71875 C 34.796875 -58.882812 34.484375 -61.601562 34.015625 -63.875 C 33.554688 -66.144531 32.9375 -67.820312 32.15625 -68.90625 C 31.375 -70 30.414062 -70.328125 29.28125 -69.890625 C 27.519531 -69.203125 25.859375 -68.003906 24.296875 -66.296875 C 22.742188 -64.597656 21.351562 -62.5625 20.125 -60.1875 C 18.894531 -57.820312 17.859375 -55.28125 17.015625 -52.5625 C 16.179688 -49.851562 15.578125 -47.113281 15.203125 -44.34375 C 14.835938 -41.570312 14.742188 -38.96875 14.921875 -36.53125 C 17.597656 -36.175781 19.695312 -35.503906 21.21875 -34.515625 C 22.738281 -33.523438 23.8125 -32.382812 24.4375 -31.09375 C 25.0625 -29.800781 25.347656 -28.492188 25.296875 -27.171875 C 25.242188 -25.847656 24.96875 -24.660156 24.46875 -23.609375 C 23.976562 -22.554688 23.390625 -21.800781 22.703125 -21.34375 C 21.972656 -20.75 21.132812 -20.539062 20.1875 -20.71875 C 19.25 -20.90625 18.335938 -21.539062 17.453125 -22.625 C 16.578125 -23.71875 15.8125 -25.320312 15.15625 -27.4375 C 14.507812 -29.550781 14.085938 -32.238281 13.890625 -35.5 C 11.367188 -35.5 9.15625 -34.972656 7.25 -33.921875 C 5.351562 -32.867188 3.8125 -31.507812 2.625 -29.84375 C 1.445312 -28.1875 0.625 -26.414062 0.15625 -24.53125 C -0.3125 -22.644531 -0.382812 -20.851562 -0.0625 -19.15625 C 0.257812 -17.46875 0.988281 -16.066406 2.125 -14.953125 L 0.875 -14.34375 C -0.1875 -15.800781 -0.8125 -17.5 -1 -19.4375 C -1.195312 -21.375 -0.976562 -23.34375 -0.34375 -25.34375 C 0.28125 -27.351562 1.25 -29.207031 2.5625 -30.90625 C 3.875 -32.601562 5.488281 -33.957031 7.40625 -34.96875 C 9.320312 -35.988281 11.503906 -36.453125 13.953125 -36.359375 C 13.796875 -39.128906 13.9375 -42 14.375 -44.96875 C 14.8125 -47.945312 15.484375 -50.835938 16.390625 -53.640625 C 17.296875 -56.453125 18.410156 -59.046875 19.734375 -61.421875 C 21.054688 -63.796875 22.519531 -65.804688 24.125 -67.453125 C 25.726562 -69.097656 27.4375 -70.222656 29.25 -70.828125 C 30.832031 -71.367188 32.191406 -71.195312 33.328125 -70.3125 C 34.472656 -69.4375 35.394531 -68.023438 36.09375 -66.078125 C 36.800781 -64.140625 37.3125 -61.796875 37.625 -59.046875 C 37.945312 -56.304688 38.117188 -53.304688 38.140625 -50.046875 C 38.160156 -46.796875 38.050781 -43.460938 37.8125 -40.046875 C 38.53125 -40.585938 39.046875 -40.960938 39.359375 -41.171875 C 39.679688 -41.378906 39.914062 -41.535156 40.0625 -41.640625 C 40.207031 -41.753906 40.375 -41.90625 40.5625 -42.09375 C 42.050781 -45.53125 43.492188 -49.046875 44.890625 -52.640625 C 46.285156 -56.242188 47.628906 -59.757812 48.921875 -63.1875 C 50.222656 -66.613281 51.46875 -69.800781 52.65625 -72.75 C 53.851562 -75.695312 54.992188 -78.253906 56.078125 -80.421875 C 57.171875 -82.585938 58.210938 -84.210938 59.203125 -85.296875 C 60.191406 -86.390625 61.109375 -86.785156 61.953125 -86.484375 C 62.796875 -86.191406 63.578125 -85.046875 64.296875 -83.046875 C 64.191406 -82.960938 64.019531 -82.875 63.78125 -82.78125 C 63.550781 -82.6875 63.472656 -82.65625 63.546875 -82.6875 C 62.859375 -84.644531 62.097656 -85.609375 61.265625 -85.578125 C 60.429688 -85.554688 59.492188 -84.726562 58.453125 -83.09375 C 57.410156 -81.46875 56.273438 -79.242188 55.046875 -76.421875 C 53.828125 -73.597656 52.507812 -70.34375 51.09375 -66.65625 C 49.675781 -62.96875 48.164062 -59.046875 46.5625 -54.890625 C 44.96875 -50.742188 43.273438 -46.566406 41.484375 -42.359375 C 43.148438 -43.003906 44.515625 -43.085938 45.578125 -42.609375 C 46.640625 -42.128906 47.472656 -41.257812 48.078125 -40 C 48.691406 -38.738281 49.125 -37.207031 49.375 -35.40625 C 49.632812 -33.601562 49.796875 -31.660156 49.859375 -29.578125 C 49.929688 -27.492188 49.957031 -25.398438 49.9375 -23.296875 C 49.925781 -21.191406 49.929688 -19.21875 49.953125 -17.375 C 49.984375 -15.53125 50.09375 -13.945312 50.28125 -12.625 C 50.476562 -11.300781 50.832031 -10.359375 51.34375 -9.796875 C 51.851562 -9.234375 52.578125 -9.191406 53.515625 -9.671875 Z M 22.953125 -22.3125 C 23.421875 -22.726562 23.816406 -23.390625 24.140625 -24.296875 C 24.472656 -25.203125 24.613281 -26.21875 24.5625 -27.34375 C 24.519531 -28.46875 24.1875 -29.578125 23.5625 -30.671875 C 22.9375 -31.765625 21.925781 -32.742188 20.53125 -33.609375 C 19.132812 -34.472656 17.242188 -35.097656 14.859375 -35.484375 C 15.191406 -31.867188 15.6875 -29.046875 16.34375 -27.015625 C 17.007812 -24.984375 17.742188 -23.539062 18.546875 -22.6875 C 19.359375 -21.84375 20.148438 -21.4375 20.921875 -21.46875 C 21.703125 -21.507812 22.378906 -21.789062 22.953125 -22.3125 Z M 22.953125 -22.3125 "/></g></g></g><g fill="#000000" fill-opacity="1"><g transform="translate(210.21108, 181.502702)"><g><path d="M 5.953125 -1.390625 C 6.742188 -2.054688 7.5625 -3.054688 8.40625 -4.390625 C 9.257812 -5.734375 10.109375 -7.238281 10.953125 -8.90625 C 11.804688 -10.582031 12.617188 -12.28125 13.390625 -14 C 14.160156 -15.71875 14.84375 -17.300781 15.4375 -18.75 C 16.039062 -20.207031 16.535156 -21.347656 16.921875 -22.171875 C 17.035156 -22.347656 17.203125 -22.488281 17.421875 -22.59375 C 17.648438 -22.707031 17.765625 -22.679688 17.765625 -22.515625 C 17.265625 -21.410156 16.679688 -20.078125 16.015625 -18.515625 C 15.359375 -16.953125 14.628906 -15.285156 13.828125 -13.515625 C 13.023438 -11.742188 12.191406 -10.015625 11.328125 -8.328125 C 10.460938 -6.648438 9.585938 -5.132812 8.703125 -3.78125 C 7.828125 -2.425781 6.972656 -1.382812 6.140625 -0.65625 C 4.867188 0.0703125 3.757812 0.253906 2.8125 -0.109375 C 1.863281 -0.484375 1.085938 -1.265625 0.484375 -2.453125 C -0.109375 -3.648438 -0.515625 -5.113281 -0.734375 -6.84375 C -0.960938 -8.570312 -0.992188 -10.429688 -0.828125 -12.421875 C -0.671875 -14.421875 -0.316406 -16.410156 0.234375 -18.390625 C 0.796875 -20.378906 1.566406 -22.203125 2.546875 -23.859375 C 3.660156 -25.773438 4.738281 -27.023438 5.78125 -27.609375 C 6.820312 -28.191406 7.660156 -28.253906 8.296875 -27.796875 C 8.929688 -27.335938 9.207031 -26.476562 9.125 -25.21875 C 9.050781 -23.957031 8.457031 -22.414062 7.34375 -20.59375 C 6.238281 -18.769531 4.457031 -16.804688 2 -14.703125 C 1.644531 -11.128906 1.609375 -8.21875 1.890625 -5.96875 C 2.171875 -3.71875 2.679688 -2.195312 3.421875 -1.40625 C 4.171875 -0.625 5.015625 -0.617188 5.953125 -1.390625 Z M 2.234375 -15.8125 C 4.253906 -17.59375 5.742188 -19.207031 6.703125 -20.65625 C 7.660156 -22.101562 8.234375 -23.347656 8.421875 -24.390625 C 8.609375 -25.429688 8.554688 -26.207031 8.265625 -26.71875 C 7.984375 -27.226562 7.609375 -27.429688 7.140625 -27.328125 C 6.441406 -27.054688 5.828125 -26.488281 5.296875 -25.625 C 4.765625 -24.757812 4.296875 -23.742188 3.890625 -22.578125 C 3.492188 -21.421875 3.160156 -20.242188 2.890625 -19.046875 C 2.617188 -17.847656 2.398438 -16.769531 2.234375 -15.8125 Z M 2.234375 -15.8125 "/></g></g></g><g fill="#000000" fill-opacity="1"><g transform="translate(227.720169, 173.025341)"><g><path d="M 11.359375 -36.46875 C 11.078125 -37.039062 10.253906 -37.035156 8.890625 -36.453125 C 7.535156 -35.878906 5.679688 -34.648438 3.328125 -32.765625 C 3.109375 -30.359375 2.890625 -27.742188 2.671875 -24.921875 C 2.460938 -22.097656 2.285156 -19.226562 2.140625 -16.3125 C 1.992188 -13.394531 1.882812 -10.597656 1.8125 -7.921875 C 1.75 -5.242188 1.738281 -2.859375 1.78125 -0.765625 C 1.832031 1.316406 1.976562 2.929688 2.21875 4.078125 C 2.375 4.816406 2.628906 5.5 2.984375 6.125 C 3.347656 6.75 3.800781 7.082031 4.34375 7.125 C 4.882812 7.175781 5.515625 6.773438 6.234375 5.921875 C 6.960938 4.984375 7.707031 3.734375 8.46875 2.171875 C 9.238281 0.609375 10.007812 -1.125 10.78125 -3.03125 C 11.5625 -4.945312 12.304688 -6.90625 13.015625 -8.90625 C 13.722656 -10.90625 14.394531 -12.816406 15.03125 -14.640625 C 15.664062 -16.460938 16.234375 -18.078125 16.734375 -19.484375 C 17.234375 -20.898438 17.632812 -21.960938 17.9375 -22.671875 C 18.050781 -22.835938 18.21875 -22.972656 18.4375 -23.078125 C 18.65625 -23.179688 18.769531 -23.160156 18.78125 -23.015625 C 18.28125 -21.898438 17.703125 -20.425781 17.046875 -18.59375 C 16.398438 -16.757812 15.691406 -14.71875 14.921875 -12.46875 C 14.148438 -10.21875 13.335938 -7.9375 12.484375 -5.625 C 11.628906 -3.320312 10.726562 -1.15625 9.78125 0.875 C 8.832031 2.914062 7.875 4.644531 6.90625 6.0625 C 6.09375 7.257812 5.285156 7.941406 4.484375 8.109375 C 3.679688 8.273438 2.953125 8.113281 2.296875 7.625 C 1.648438 7.132812 1.140625 6.503906 0.765625 5.734375 C 0.148438 4.398438 -0.289062 2.65625 -0.5625 0.5 C -0.832031 -1.65625 -0.992188 -4.054688 -1.046875 -6.703125 C -1.109375 -9.359375 -1.085938 -12.082031 -0.984375 -14.875 C -0.878906 -17.675781 -0.726562 -20.40625 -0.53125 -23.0625 C -0.34375 -25.71875 -0.148438 -28.109375 0.046875 -30.234375 C -1.066406 -29.179688 -2.175781 -28.296875 -3.28125 -27.578125 C -4.394531 -26.867188 -5.375 -26.5625 -6.21875 -26.65625 C -6.570312 -26.675781 -6.734375 -26.851562 -6.703125 -27.1875 C -6.671875 -27.53125 -6.539062 -27.789062 -6.3125 -27.96875 C -6.09375 -28.15625 -5.921875 -28.039062 -5.796875 -27.625 C -5.335938 -27.332031 -4.550781 -27.546875 -3.4375 -28.265625 C -2.332031 -28.984375 -1.15625 -29.9375 0.09375 -31.125 C 0.195312 -32.28125 0.320312 -33.523438 0.46875 -34.859375 C 0.613281 -36.203125 0.75 -37.472656 0.875 -38.671875 C 1 -39.878906 1.113281 -40.820312 1.21875 -41.5 C 1.425781 -42.625 1.796875 -43.445312 2.328125 -43.96875 C 2.867188 -44.488281 3.347656 -44.660156 3.765625 -44.484375 C 4.179688 -44.316406 4.328125 -43.75 4.203125 -42.78125 C 4.171875 -42.601562 4.109375 -42.035156 4.015625 -41.078125 C 3.929688 -40.128906 3.832031 -38.992188 3.71875 -37.671875 C 3.613281 -36.359375 3.492188 -35.019531 3.359375 -33.65625 C 4.429688 -34.53125 5.550781 -35.335938 6.71875 -36.078125 C 7.882812 -36.828125 8.9375 -37.363281 9.875 -37.6875 C 10.820312 -38.007812 11.476562 -37.957031 11.84375 -37.53125 C 12.082031 -37.375 12.164062 -37.160156 12.09375 -36.890625 C 12.03125 -36.617188 11.914062 -36.421875 11.75 -36.296875 C 11.59375 -36.179688 11.460938 -36.238281 11.359375 -36.46875 Z M 11.359375 -36.46875 "/></g></g></g><g fill="#000000" fill-opacity="1"><g transform="translate(246.140691, 164.106692)"><g><path d="M 13.140625 -2.796875 C 13.929688 -3.859375 14.769531 -5.1875 15.65625 -6.78125 C 16.550781 -8.382812 17.425781 -10.101562 18.28125 -11.9375 C 19.144531 -13.769531 19.960938 -15.582031 20.734375 -17.375 C 21.503906 -19.175781 22.191406 -20.8125 22.796875 -22.28125 C 23.410156 -23.757812 23.910156 -24.914062 24.296875 -25.75 C 24.421875 -25.914062 24.59375 -26.050781 24.8125 -26.15625 C 25.039062 -26.269531 25.148438 -26.25 25.140625 -26.09375 C 24.535156 -24.726562 23.8125 -23.039062 22.96875 -21.03125 C 22.125 -19.03125 21.203125 -16.921875 20.203125 -14.703125 C 19.210938 -12.484375 18.1875 -10.335938 17.125 -8.265625 C 16.070312 -6.203125 15.023438 -4.421875 13.984375 -2.921875 C 12.804688 -1.203125 11.785156 -0.175781 10.921875 0.15625 C 10.054688 0.488281 9.335938 0.300781 8.765625 -0.40625 C 8.203125 -1.125 7.785156 -2.210938 7.515625 -3.671875 C 7.242188 -5.140625 7.09375 -6.832031 7.0625 -8.75 C 7.039062 -10.675781 7.15625 -12.6875 7.40625 -14.78125 C 7.65625 -16.875 8 -18.894531 8.4375 -20.84375 C 6.976562 -16.269531 5.847656 -12.847656 5.046875 -10.578125 C 4.253906 -8.316406 3.535156 -6.929688 2.890625 -6.421875 C 2.085938 -5.847656 1.359375 -5.765625 0.703125 -6.171875 C 0.0546875 -6.585938 -0.398438 -7.445312 -0.671875 -8.75 C -0.953125 -10.050781 -0.957031 -11.738281 -0.6875 -13.8125 C -0.425781 -16 0.113281 -17.894531 0.9375 -19.5 C 1.769531 -21.101562 2.722656 -22.429688 3.796875 -23.484375 C 4.867188 -24.535156 5.910156 -25.3125 6.921875 -25.8125 C 7.929688 -26.320312 8.78125 -26.566406 9.46875 -26.546875 L 9.828125 -27.78125 C 10.117188 -28.800781 10.550781 -29.546875 11.125 -30.015625 C 11.707031 -30.492188 12.226562 -30.71875 12.6875 -30.6875 C 13.15625 -30.664062 13.335938 -30.390625 13.234375 -29.859375 C 12.847656 -28.722656 12.4375 -27.253906 12 -25.453125 C 11.570312 -23.648438 11.175781 -21.671875 10.8125 -19.515625 C 10.457031 -17.367188 10.164062 -15.222656 9.9375 -13.078125 C 9.71875 -10.929688 9.582031 -8.96875 9.53125 -7.1875 C 9.488281 -5.414062 9.570312 -3.96875 9.78125 -2.84375 C 10 -1.71875 10.375 -1.109375 10.90625 -1.015625 C 11.4375 -0.929688 12.179688 -1.523438 13.140625 -2.796875 Z M 9.21875 -25.609375 C 8.175781 -25.617188 7.253906 -25.234375 6.453125 -24.453125 C 5.660156 -23.671875 4.96875 -22.65625 4.375 -21.40625 C 3.789062 -20.15625 3.332031 -18.8125 3 -17.375 C 2.675781 -15.945312 2.457031 -14.554688 2.34375 -13.203125 C 2.226562 -11.847656 2.238281 -10.679688 2.375 -9.703125 C 2.519531 -8.722656 2.785156 -8.070312 3.171875 -7.75 C 3.429688 -8.113281 3.785156 -8.925781 4.234375 -10.1875 C 4.691406 -11.457031 5.195312 -12.976562 5.75 -14.75 C 6.3125 -16.519531 6.894531 -18.359375 7.5 -20.265625 C 8.101562 -22.171875 8.675781 -23.953125 9.21875 -25.609375 Z M 9.21875 -25.609375 "/></g></g></g><g fill="#000000" fill-opacity="1"><g transform="translate(271.181091, 151.982901)"><g><path d="M 2.484375 -19.328125 C 2.441406 -18.046875 2.394531 -16.90625 2.34375 -15.90625 C 2.289062 -14.90625 2.21875 -13.894531 2.125 -12.875 C 3.332031 -17.875 4.609375 -21.914062 5.953125 -25 C 7.296875 -28.082031 8.59375 -30.269531 9.84375 -31.5625 C 11.09375 -32.863281 12.144531 -33.328125 13 -32.953125 C 13.851562 -32.566406 14.460938 -31.765625 14.828125 -30.546875 C 15.203125 -29.335938 15.40625 -27.867188 15.4375 -26.140625 C 15.46875 -24.410156 15.390625 -22.570312 15.203125 -20.625 C 15.023438 -18.6875 14.816406 -16.757812 14.578125 -14.84375 C 14.335938 -12.925781 14.125 -11.175781 13.9375 -9.59375 C 13.757812 -8.007812 13.6875 -6.734375 13.71875 -5.765625 C 13.757812 -4.796875 13.960938 -4.257812 14.328125 -4.15625 C 14.691406 -4.050781 15.300781 -4.546875 16.15625 -5.640625 C 16.96875 -6.648438 17.804688 -7.910156 18.671875 -9.421875 C 19.535156 -10.929688 20.394531 -12.535156 21.25 -14.234375 C 22.113281 -15.929688 22.921875 -17.613281 23.671875 -19.28125 C 24.421875 -20.945312 25.097656 -22.46875 25.703125 -23.84375 C 26.304688 -25.21875 26.800781 -26.316406 27.1875 -27.140625 C 27.300781 -27.316406 27.46875 -27.457031 27.6875 -27.5625 C 27.914062 -27.675781 28.03125 -27.65625 28.03125 -27.5 C 27.425781 -26.125 26.707031 -24.503906 25.875 -22.640625 C 25.039062 -20.773438 24.132812 -18.828125 23.15625 -16.796875 C 22.1875 -14.773438 21.1875 -12.804688 20.15625 -10.890625 C 19.125 -8.972656 18.085938 -7.265625 17.046875 -5.765625 C 16.253906 -4.640625 15.632812 -3.925781 15.1875 -3.625 C 14.738281 -3.320312 14.179688 -3.207031 13.515625 -3.28125 C 12.878906 -3.375 12.425781 -3.945312 12.15625 -5 C 11.882812 -6.050781 11.75 -7.40625 11.75 -9.0625 C 11.75 -10.71875 11.828125 -12.539062 11.984375 -14.53125 C 12.148438 -16.53125 12.332031 -18.523438 12.53125 -20.515625 C 12.738281 -22.503906 12.914062 -24.34375 13.0625 -26.03125 C 13.207031 -27.726562 13.253906 -29.113281 13.203125 -30.1875 C 13.160156 -31.269531 12.945312 -31.882812 12.5625 -32.03125 C 11.695312 -32.351562 10.585938 -31.566406 9.234375 -29.671875 C 7.878906 -27.773438 6.507812 -24.890625 5.125 -21.015625 C 3.738281 -17.140625 2.5625 -12.390625 1.59375 -6.765625 L 1.015625 -0.484375 C 0.835938 0.472656 0.550781 1.101562 0.15625 1.40625 C -0.238281 1.71875 -0.601562 1.773438 -0.9375 1.578125 C -1.269531 1.390625 -1.421875 1.050781 -1.390625 0.5625 C -1.328125 -0.957031 -1.273438 -2.171875 -1.234375 -3.078125 C -1.203125 -3.992188 -1.179688 -4.800781 -1.171875 -5.5 C -1.160156 -6.195312 -1.132812 -6.957031 -1.09375 -7.78125 C -1.0625 -8.601562 -0.992188 -9.679688 -0.890625 -11.015625 C -0.785156 -12.359375 -0.660156 -14.132812 -0.515625 -16.34375 C -0.421875 -16.957031 -0.21875 -17.570312 0.09375 -18.1875 C 0.40625 -18.8125 0.753906 -19.3125 1.140625 -19.6875 C 1.535156 -20.070312 1.863281 -20.257812 2.125 -20.25 C 2.382812 -20.238281 2.503906 -19.929688 2.484375 -19.328125 Z M 2.484375 -19.328125 "/></g></g></g><g clip-path="url(#906b06aa37)"><g clip-path="url(#f3069dcd0f)"><g clip-path="url(#c4cc5424d1)"><g clip-path="url(#66e30af630)"><path fill="#000000" d="M 59.804688 229.152344 C 91.550781 240.992188 131.574219 211.320312 140.609375 194.585938 L 141.683594 195.183594 C 132.996094 211.269531 92.472656 242.296875 59.617188 230.9375 C 58.007812 230.382812 58.710938 228.746094 59.804688 229.152344 Z M 59.804688 229.152344 " fill-opacity="1" fill-rule="nonzero"/></g></g></g></g><g fill="#000000" fill-opacity="1"><g transform="translate(121.628578, 145.474069)"><g><path d="M -9.21875 -7.171875 L -7.65625 -9.921875 C -6.9375 -11.171875 -6.09375 -12.066406 -5.125 -12.609375 C -4.164062 -13.148438 -3.1875 -13.382812 -2.1875 -13.3125 C -1.195312 -13.238281 -0.265625 -12.953125 0.609375 -12.453125 C 1.578125 -11.898438 2.304688 -11.179688 2.796875 -10.296875 C 3.285156 -9.421875 3.515625 -8.488281 3.484375 -7.5 C 3.453125 -6.507812 3.179688 -5.570312 2.671875 -4.6875 L 0.828125 -1.4375 Z M 1.234375 -5.171875 C 1.648438 -5.910156 1.875 -6.65625 1.90625 -7.40625 C 1.945312 -8.15625 1.78125 -8.851562 1.40625 -9.5 C 1.039062 -10.144531 0.476562 -10.6875 -0.28125 -11.125 C -1.070312 -11.570312 -1.847656 -11.785156 -2.609375 -11.765625 C -3.367188 -11.753906 -4.054688 -11.546875 -4.671875 -11.140625 C -5.285156 -10.734375 -5.78125 -10.203125 -6.15625 -9.546875 L -7.15625 -7.796875 L 0.296875 -3.546875 Z M 1.234375 -5.171875 "/></g></g></g><g fill="#000000" fill-opacity="1"><g transform="translate(129.276533, 132.737218)"><g><path d="M -2.890625 -14.484375 L -1.765625 -13.515625 L -5.625 -8.953125 L -2.9375 -6.6875 L 0.5 -10.765625 L 1.640625 -9.8125 L -1.796875 -5.734375 L 0.9375 -3.421875 L 4.9375 -8.15625 L 6.078125 -7.1875 L 1.0625 -1.265625 L -7.765625 -8.734375 Z M -2.890625 -14.484375 "/></g></g></g><g fill="#000000" fill-opacity="1"><g transform="translate(138.071166, 122.771702)"><g><path d="M -0.3125 -12.1875 C -0.769531 -12.101562 -1.222656 -11.957031 -1.671875 -11.75 C -2.117188 -11.539062 -2.503906 -11.300781 -2.828125 -11.03125 C -3.296875 -10.625 -3.582031 -10.195312 -3.6875 -9.75 C -3.789062 -9.300781 -3.6875 -8.890625 -3.375 -8.515625 C -3.0625 -8.148438 -2.640625 -7.988281 -2.109375 -8.03125 C -1.585938 -8.082031 -0.925781 -8.253906 -0.125 -8.546875 C 0.488281 -8.765625 1.03125 -8.910156 1.5 -8.984375 C 1.96875 -9.054688 2.453125 -9.007812 2.953125 -8.84375 C 3.453125 -8.6875 3.921875 -8.351562 4.359375 -7.84375 C 4.765625 -7.363281 5.007812 -6.832031 5.09375 -6.25 C 5.175781 -5.664062 5.09375 -5.082031 4.84375 -4.5 C 4.59375 -3.914062 4.171875 -3.375 3.578125 -2.875 C 3.035156 -2.40625 2.4375 -2.039062 1.78125 -1.78125 C 1.132812 -1.53125 0.503906 -1.378906 -0.109375 -1.328125 L -0.375 -2.71875 C 0.113281 -2.75 0.632812 -2.863281 1.1875 -3.0625 C 1.75 -3.269531 2.210938 -3.523438 2.578125 -3.828125 C 3.046875 -4.222656 3.351562 -4.691406 3.5 -5.234375 C 3.65625 -5.785156 3.523438 -6.300781 3.109375 -6.78125 C 2.765625 -7.1875 2.34375 -7.378906 1.84375 -7.359375 C 1.351562 -7.347656 0.75 -7.222656 0.03125 -6.984375 C -0.625 -6.753906 -1.191406 -6.585938 -1.671875 -6.484375 C -2.148438 -6.390625 -2.640625 -6.398438 -3.140625 -6.515625 C -3.640625 -6.628906 -4.09375 -6.921875 -4.5 -7.390625 C -5.082031 -8.085938 -5.3125 -8.847656 -5.1875 -9.671875 C -5.0625 -10.503906 -4.625 -11.265625 -3.875 -11.953125 C -2.925781 -12.765625 -1.847656 -13.28125 -0.640625 -13.5 Z M -0.3125 -12.1875 "/></g></g></g><g fill="#000000" fill-opacity="1"><g transform="translate(147.633982, 115.109915)"><g><path d="M -3.5625 -11.46875 L 2.703125 -1.75 L 1.390625 -0.890625 L -4.875 -10.609375 Z M -3.5625 -11.46875 "/></g></g></g><g fill="#000000" fill-opacity="1"><g transform="translate(154.162762, 110.848044)"><g><path d="M 9.375 -5.3125 C 9.164062 -4.925781 8.765625 -4.46875 8.171875 -3.9375 C 7.585938 -3.414062 7 -3.023438 6.40625 -2.765625 C 5.320312 -2.273438 4.257812 -2.0625 3.21875 -2.125 C 2.175781 -2.195312 1.25 -2.523438 0.4375 -3.109375 C -0.363281 -3.703125 -0.984375 -4.484375 -1.421875 -5.453125 C -1.941406 -6.609375 -2.144531 -7.710938 -2.03125 -8.765625 C -1.925781 -9.828125 -1.5625 -10.769531 -0.9375 -11.59375 C -0.320312 -12.425781 0.472656 -13.0625 1.453125 -13.5 C 2.046875 -13.769531 2.632812 -13.945312 3.21875 -14.03125 C 3.8125 -14.125 4.375 -14.148438 4.90625 -14.109375 L 5.03125 -12.609375 C 4.632812 -12.640625 4.171875 -12.613281 3.640625 -12.53125 C 3.109375 -12.457031 2.65625 -12.332031 2.28125 -12.15625 C 1.46875 -11.789062 0.816406 -11.300781 0.328125 -10.6875 C -0.160156 -10.070312 -0.429688 -9.378906 -0.484375 -8.609375 C -0.535156 -7.847656 -0.378906 -7.0625 -0.015625 -6.25 C 0.328125 -5.488281 0.796875 -4.882812 1.390625 -4.4375 C 1.992188 -4 2.6875 -3.757812 3.46875 -3.71875 C 4.25 -3.675781 5.035156 -3.832031 5.828125 -4.1875 C 6.191406 -4.351562 6.53125 -4.550781 6.84375 -4.78125 C 7.15625 -5.007812 7.398438 -5.242188 7.578125 -5.484375 L 6.640625 -7.5625 L 4.53125 -6.625 L 3.921875 -7.984375 L 7.453125 -9.578125 Z M 9.375 -5.3125 "/></g></g></g><g fill="#000000" fill-opacity="1"><g transform="translate(167.725383, 104.957247)"><g><path d="M 8.90625 -13.875 L 11.546875 -2.21875 L 11.515625 -2.203125 L 1.3125 -8.734375 L 3.15625 -0.71875 L 1.609375 -0.359375 L -1.015625 -11.984375 L -0.921875 -12.015625 L 9.265625 -5.375 L 7.390625 -13.53125 Z M 8.90625 -13.875 "/></g></g></g><g fill="#000000" fill-opacity="1"><g transform="translate(183.69618, 101.914544)"><g/></g></g><g fill="#000000" fill-opacity="1"><g transform="translate(191.682324, 101.43544)"><g><path d="M 7.21875 -5.5 C 7.875 -5.1875 8.375 -4.78125 8.71875 -4.28125 C 9.0625 -3.78125 9.210938 -3.21875 9.171875 -2.59375 C 9.117188 -1.863281 8.894531 -1.269531 8.5 -0.8125 C 8.113281 -0.351562 7.617188 -0.03125 7.015625 0.15625 C 6.421875 0.34375 5.78125 0.410156 5.09375 0.359375 L 1.65625 0.125 L 2.484375 -11.40625 L 5.46875 -11.203125 C 6.65625 -11.117188 7.554688 -10.8125 8.171875 -10.28125 C 8.785156 -9.75 9.0625 -9.003906 9 -8.046875 C 8.945312 -7.441406 8.765625 -6.921875 8.453125 -6.484375 C 8.148438 -6.046875 7.738281 -5.71875 7.21875 -5.5 Z M 3.671875 -6.265625 L 5.421875 -6.140625 C 6.023438 -6.097656 6.488281 -6.234375 6.8125 -6.546875 C 7.132812 -6.867188 7.316406 -7.300781 7.359375 -7.84375 C 7.398438 -8.414062 7.25 -8.859375 6.90625 -9.171875 C 6.570312 -9.484375 6.078125 -9.660156 5.421875 -9.703125 L 3.921875 -9.8125 Z M 5.140625 -1.078125 C 5.804688 -1.023438 6.367188 -1.132812 6.828125 -1.40625 C 7.285156 -1.6875 7.535156 -2.113281 7.578125 -2.6875 C 7.617188 -3.289062 7.410156 -3.753906 6.953125 -4.078125 C 6.503906 -4.410156 5.941406 -4.601562 5.265625 -4.65625 L 3.5625 -4.765625 L 3.3125 -1.203125 Z M 5.140625 -1.078125 "/></g></g></g><g fill="#000000" fill-opacity="1"><g transform="translate(204.366941, 102.536839)"><g><path d="M 13.109375 -8.640625 L 7.03125 -2.234375 L 6.09375 1.515625 L 4.59375 1.140625 L 5.53125 -2.609375 L 3.234375 -11.109375 L 5.09375 -10.640625 L 6.734375 -4.09375 L 11.25 -9.109375 Z M 13.109375 -8.640625 "/></g></g></g><g fill="#000000" fill-opacity="1"><g transform="translate(182.345137, 260.659897)"><g><path d="M 9.125 -11.078125 L 9.03125 -9.59375 L 5.921875 -9.765625 L 5.375 0.296875 L 3.84375 0.21875 L 4.390625 -9.84375 L 1.359375 -10.015625 L 1.453125 -11.5 Z M 9.125 -11.078125 "/></g></g></g><g fill="#000000" fill-opacity="1"><g transform="translate(195.590794, 261.176928)"><g><path d="M 10.75 -1.34375 L 9.203125 -1.140625 L 8.578125 -6.1875 L 2.5625 -5.4375 L 3.1875 -0.390625 L 1.640625 -0.203125 L 0.21875 -11.671875 L 1.765625 -11.859375 L 2.375 -6.90625 L 8.390625 -7.65625 L 7.78125 -12.609375 L 9.328125 -12.8125 Z M 10.75 -1.34375 "/></g></g></g><g fill="#000000" fill-opacity="1"><g transform="translate(211.870913, 258.707387)"><g><path d="M 6.421875 -5.28125 L 2.1875 -3.90625 L 1.953125 -0.640625 L 0.484375 -0.15625 L 1.5625 -13.171875 L 1.640625 -13.203125 L 10.1875 -3.3125 L 8.484375 -2.765625 Z M 5.484375 -6.40625 L 2.625 -9.90625 L 2.296875 -5.359375 Z M 5.484375 -6.40625 "/></g></g></g><g fill="#000000" fill-opacity="1"><g transform="translate(226.162557, 253.666664)"><g><path d="M -0.203125 -7.09375 L -0.171875 -7.453125 L 1.65625 -14.03125 L 3.40625 -14.984375 L 1.5625 -8.359375 L 9.15625 -4.9375 L 7.421875 -4.015625 L 1.03125 -6.9375 L 0.625 -5.640625 L 2.859375 -1.546875 L 1.453125 -0.78125 L -4.046875 -10.953125 L -2.640625 -11.71875 L -0.421875 -7.625 Z M -0.203125 -7.09375 "/></g></g></g><g fill="#000000" fill-opacity="1"><g transform="translate(239.056536, 246.333872)"><g><path d="M -0.1875 -5.125 C 0.132812 -4.726562 0.519531 -4.441406 0.96875 -4.265625 C 1.425781 -4.097656 1.894531 -4.050781 2.375 -4.125 C 2.851562 -4.207031 3.289062 -4.410156 3.6875 -4.734375 C 4.101562 -5.066406 4.398438 -5.460938 4.578125 -5.921875 C 4.765625 -6.378906 4.820312 -6.84375 4.75 -7.3125 C 4.6875 -7.789062 4.492188 -8.226562 4.171875 -8.625 L -0.515625 -14.4375 L 0.65625 -15.390625 L 5.375 -9.546875 C 5.894531 -8.898438 6.207031 -8.210938 6.3125 -7.484375 C 6.425781 -6.753906 6.332031 -6.046875 6.03125 -5.359375 C 5.726562 -4.679688 5.257812 -4.085938 4.625 -3.578125 C 4 -3.066406 3.320312 -2.738281 2.59375 -2.59375 C 1.863281 -2.445312 1.148438 -2.5 0.453125 -2.75 C -0.242188 -3.007812 -0.851562 -3.460938 -1.375 -4.109375 L -6.09375 -9.953125 L -4.875 -10.9375 Z M -0.1875 -5.125 "/></g></g></g><g fill="#000000" fill-opacity="1"><g transform="translate(250.97485, 236.18831)"><g><path d="M 5.234375 -6.09375 L 0.234375 -6.8125 C 0.179688 -6.738281 0.0976562 -6.632812 -0.015625 -6.5 L -1.125 -5.203125 L 2.09375 -2.4375 L 1.078125 -1.25 L -7.6875 -8.78125 L -5.671875 -11.140625 C -5.148438 -11.734375 -4.582031 -12.175781 -3.96875 -12.46875 C -3.363281 -12.757812 -2.742188 -12.863281 -2.109375 -12.78125 C -1.472656 -12.695312 -0.863281 -12.40625 -0.28125 -11.90625 C 0.257812 -11.4375 0.648438 -10.890625 0.890625 -10.265625 C 1.140625 -9.648438 1.171875 -8.988281 0.984375 -8.28125 L 6.421875 -7.46875 Z M -1.1875 -7.46875 C -0.644531 -8.101562 -0.414062 -8.703125 -0.5 -9.265625 C -0.582031 -9.828125 -0.835938 -10.296875 -1.265625 -10.671875 C -1.523438 -10.890625 -1.832031 -11.046875 -2.1875 -11.140625 C -2.539062 -11.234375 -2.910156 -11.226562 -3.296875 -11.125 C -3.679688 -11.019531 -4.039062 -10.769531 -4.375 -10.375 L -5.546875 -9.015625 L -2.28125 -6.203125 Z M -1.1875 -7.46875 "/></g></g></g></svg>